<?xml version="1.0" encoding="UTF-8" standalone="no"?>
<svg
   xmlns:dc="http://purl.org/dc/elements/1.1/"
   xmlns:cc="http://creativecommons.org/ns#"
   xmlns:rdf="http://www.w3.org/1999/02/22-rdf-syntax-ns#"
   xmlns:svg="http://www.w3.org/2000/svg"
   xmlns="http://www.w3.org/2000/svg"
   xmlns:sodipodi="http://sodipodi.sourceforge.net/DTD/sodipodi-0.dtd"
   xmlns:inkscape="http://www.inkscape.org/namespaces/inkscape"
   width="6.7905798mm"
   height="4.145062mm"
   viewBox="0 0 6.7905798 4.145062"
   version="1.1"
   id="svg2128"
   sodipodi:docname="cloud3.svg"
   inkscape:version="0.92.4 (5da689c313, 2019-01-14)">
  <sodipodi:namedview
     pagecolor="#ffffff"
     bordercolor="#666666"
     borderopacity="1"
     objecttolerance="10"
     gridtolerance="10"
     guidetolerance="10"
     inkscape:pageopacity="0"
     inkscape:pageshadow="2"
     inkscape:window-width="1822"
     inkscape:window-height="1051"
     id="namedview820"
     showgrid="false"
     inkscape:zoom="26.500013"
     inkscape:cx="6.614648"
     inkscape:cy="3.5126059"
     inkscape:window-x="2489"
     inkscape:window-y="-9"
     inkscape:window-maximized="1"
     inkscape:current-layer="svg2128"
     fit-margin-top="0"
     fit-margin-left="0"
     fit-margin-right="0"
     fit-margin-bottom="0" />
  <defs
     id="defs2122" />
  <metadata
     id="metadata2125">
    <rdf:RDF>
      <cc:Work
         rdf:about="">
        <dc:format>image/svg+xml</dc:format>
        <dc:type
           rdf:resource="http://purl.org/dc/dcmitype/StillImage" />
        <dc:title></dc:title>
      </cc:Work>
    </rdf:RDF>
  </metadata>
  <path
     inkscape:connector-curvature="0"
     style="fill:none;fill-opacity:1;stroke:#000000;stroke-width:0.176;stroke-miterlimit:4;stroke-dasharray:none"
     d="M 2.73383,0.08831222 A 1.3229166,1.3229166 0 0 0 1.41092,1.4112222 1.3229166,1.3229166 0 0 0 0.088,2.7341422 a 1.3229166,1.3229166 0 0 0 1.32292,1.32292 h 3.96875 a 1.3229166,1.3229166 0 0 0 1.32291,-1.32292 1.3229166,1.3229166 0 0 0 -1.32291,-1.32292 1.3229166,1.3229166 0 0 0 -0.11008,0.005 1.3229166,1.3229166 0 0 0 -1.21284,-0.79890998 1.3229166,1.3229166 0 0 0 -0.24908,0.0243 1.3229166,1.3229166 0 0 0 -1.07384,-0.55346 z"
     id="path2120" />
</svg>
