<?xml version="1.0" encoding="UTF-8" standalone="no"?>
<!-- Created with Inkscape (http://www.inkscape.org/) -->

<svg
   xmlns:dc="http://purl.org/dc/elements/1.1/"
   xmlns:cc="http://creativecommons.org/ns#"
   xmlns:rdf="http://www.w3.org/1999/02/22-rdf-syntax-ns#"
   xmlns:svg="http://www.w3.org/2000/svg"
   xmlns="http://www.w3.org/2000/svg"
   xmlns:sodipodi="http://sodipodi.sourceforge.net/DTD/sodipodi-0.dtd"
   xmlns:inkscape="http://www.inkscape.org/namespaces/inkscape"
   width="210mm"
   height="297mm"
   viewBox="0 0 210 297"
   version="1.1"
   id="svg827"
   inkscape:version="0.92.4 (5da689c313, 2019-01-14)"
   sodipodi:docname="bird.svg">
  <defs
     id="defs821" />
  <sodipodi:namedview
     id="base"
     pagecolor="#ffffff"
     bordercolor="#666666"
     borderopacity="1.0"
     inkscape:pageopacity="0.0"
     inkscape:pageshadow="2"
     inkscape:zoom="16"
     inkscape:cx="346.06668"
     inkscape:cy="932.0158"
     inkscape:document-units="mm"
     inkscape:current-layer="layer1"
     showgrid="true"
     inkscape:window-width="1822"
     inkscape:window-height="1051"
     inkscape:window-x="2489"
     inkscape:window-y="-9"
     inkscape:window-maximized="1"
     inkscape:snap-object-midpoints="true">
    <inkscape:grid
       type="xygrid"
       id="grid1372" />
  </sodipodi:namedview>
  <metadata
     id="metadata824">
    <rdf:RDF>
      <cc:Work
         rdf:about="">
        <dc:format>image/svg+xml</dc:format>
        <dc:type
           rdf:resource="http://purl.org/dc/dcmitype/StillImage" />
        <dc:title />
      </cc:Work>
    </rdf:RDF>
  </metadata>
  <g
     inkscape:label="Layer 1"
     inkscape:groupmode="layer"
     id="layer1">
    <rect
       y="80.041664"
       x="120.38541"
       height="1.3229166"
       width="1.3229166"
       id="rect853"
       style="fill:#000000;fill-opacity:1;stroke:none;stroke-width:0.176;stroke-miterlimit:4;stroke-dasharray:none" />
    <rect
       style="fill:#000000;fill-opacity:1;stroke:none;stroke-width:0.176;stroke-miterlimit:4;stroke-dasharray:none"
       id="rect1374"
       width="1.3229166"
       height="0.79375178"
       x="89.958336"
       y="56.229168" />
    <circle
       style="fill:#000000;fill-opacity:1;stroke:none;stroke-width:0.176;stroke-miterlimit:4;stroke-dasharray:none"
       id="path1376"
       cx="84.052452"
       cy="58.237164"
       r="1.3229166" />
    <path
       style="fill:#000000;fill-opacity:1;stroke:none;stroke-width:0.176;stroke-miterlimit:4;stroke-dasharray:none"
       d="M 92.604166,56.229167 H 91.28125 v 0.79375 a 1.3229166,0.79375003 0 0 0 1.322916,-0.79375 z"
       id="rect1383"
       inkscape:connector-curvature="0" />
    <path
       inkscape:connector-curvature="0"
       id="path1388"
       d="m 88.635417,56.229167 h 1.322916 v 0.79375 a 1.3229166,0.79375003 0 0 1 -1.322916,-0.79375 z"
       style="fill:#000000;fill-opacity:1;stroke:none;stroke-width:0.176;stroke-miterlimit:4;stroke-dasharray:none" />
    <path
       style="fill:#000000;fill-opacity:1;stroke:none;stroke-width:0.17600001;stroke-miterlimit:4;stroke-dasharray:none"
       d="m 90.904589,57.695231 a 0.57003814,0.57003814 0 0 0 -0.284797,-0.492995 0.57003814,0.57003814 0 0 0 -0.28524,0.492995 z"
       id="path1390"
       inkscape:connector-curvature="0" />
    <path
       style="fill:#000000;fill-opacity:1;stroke:none;stroke-width:0.176;stroke-miterlimit:4;stroke-dasharray:none"
       d="m 89.958334,57.022917 a 1.3229166,1.3229166 0 0 1 0.661458,0.179319 1.3229166,1.3229166 0 0 1 0.661458,-0.179319 z"
       id="rect1399"
       inkscape:connector-curvature="0" />
    <path
       id="path1404"
       d="m 84.468959,55.628156 a 1.3229166,1.3229166 0 0 0 0.661458,-0.179319 1.3229166,1.3229166 0 0 0 0.661458,0.179319 z"
       style="fill:#000000;fill-opacity:1;stroke:none;stroke-width:0.176;stroke-miterlimit:4;stroke-dasharray:none"
       inkscape:connector-curvature="0" />
    <path
       inkscape:connector-curvature="0"
       id="path1406"
       d="m 90.904814,56.229169 a 0.57003814,0.57003814 0 0 0 -0.284797,-0.492995 0.57003814,0.57003814 0 0 0 -0.28524,0.492995 z"
       style="fill:#000000;fill-opacity:1;stroke:none;stroke-width:0.17600001;stroke-miterlimit:4;stroke-dasharray:none" />
    <rect
       y="51.392254"
       x="89.925262"
       height="0.79375178"
       width="1.3229166"
       id="rect1408"
       style="fill:#000000;fill-opacity:1;stroke:none;stroke-width:0.176;stroke-miterlimit:4;stroke-dasharray:none" />
    <path
       inkscape:connector-curvature="0"
       id="path1410"
       d="m 92.571093,51.392253 h -1.322916 v 0.79375 a 1.3229166,0.79375003 0 0 0 1.322916,-0.79375 z"
       style="fill:#000000;fill-opacity:1;stroke:none;stroke-width:0.176;stroke-miterlimit:4;stroke-dasharray:none" />
    <path
       style="fill:#000000;fill-opacity:1;stroke:none;stroke-width:0.176;stroke-miterlimit:4;stroke-dasharray:none"
       d="m 88.602344,51.392253 h 1.322916 v 0.79375 a 1.3229166,0.79375003 0 0 1 -1.322916,-0.79375 z"
       id="path1412"
       inkscape:connector-curvature="0" />
    <path
       inkscape:connector-curvature="0"
       id="path1414"
       d="m 90.871516,52.858317 a 0.57003814,0.57003814 0 0 0 -0.284797,-0.492995 0.57003814,0.57003814 0 0 0 -0.28524,0.492995 z"
       style="fill:#000000;fill-opacity:1;stroke:none;stroke-width:0.17600001;stroke-miterlimit:4;stroke-dasharray:none" />
    <path
       inkscape:connector-curvature="0"
       id="path1416"
       d="m 89.925261,52.186003 a 1.3229166,1.3229166 0 0 1 0.661458,0.179319 1.3229166,1.3229166 0 0 1 0.661458,-0.179319 z"
       style="fill:#000000;fill-opacity:1;stroke:none;stroke-width:0.176;stroke-miterlimit:4;stroke-dasharray:none" />
    <path
       style="fill:#000000;fill-opacity:1;stroke:none;stroke-width:0.17600001;stroke-miterlimit:4;stroke-dasharray:none"
       d="m 90.871741,51.392255 a 0.57003814,0.57003814 0 0 0 -0.284797,-0.492995 0.57003814,0.57003814 0 0 0 -0.28524,0.492995 z"
       id="path1418"
       inkscape:connector-curvature="0" />
    <path
       style="fill:#000000;fill-opacity:1;stroke:none;stroke-width:0.66519684;stroke-miterlimit:4;stroke-dasharray:none"
       d="m 336,184.51969 c 0,1.65685 1.23858,2.99984 4,2.99984 h 5 c 2.76142,0 4,-1.34299 4,-2.99984 l -4,-1.6e-4 h -5 z"
       id="rect1420"
       transform="scale(0.26458333)"
       inkscape:connector-curvature="0"
       sodipodi:nodetypes="csscccc" />
    <path
       style="fill:#000000;fill-opacity:1;stroke:none;stroke-width:0.17600001;stroke-miterlimit:4;stroke-dasharray:none"
       d="m 90.904589,50.286897 a 0.57003814,0.57003814 0 0 0 -0.284797,-0.492995 0.57003814,0.57003814 0 0 0 -0.28524,0.492995 z"
       id="path1426"
       inkscape:connector-curvature="0" />
    <path
       style="fill:#000000;fill-opacity:1;stroke:none;stroke-width:0.176;stroke-miterlimit:4;stroke-dasharray:none"
       d="m 89.958334,49.614583 a 1.3229166,1.3229166 0 0 1 0.661458,0.179319 1.3229166,1.3229166 0 0 1 0.661458,-0.179319 z"
       id="path1428"
       inkscape:connector-curvature="0" />
    <path
       inkscape:connector-curvature="0"
       id="path1430"
       d="m 90.904814,48.820835 a 0.57003814,0.57003814 0 0 0 -0.284797,-0.492995 0.57003814,0.57003814 0 0 0 -0.28524,0.492995 z"
       style="fill:#000000;fill-opacity:1;stroke:none;stroke-width:0.17600001;stroke-miterlimit:4;stroke-dasharray:none" />
    <path
       sodipodi:nodetypes="csscccc"
       inkscape:connector-curvature="0"
       id="path1438"
       d="m 89.164583,45.645833 c 0,0.438375 0.06313,0.793708 0.793751,0.793708 h 1.322916 c 0.730626,0 0.79375,-0.355333 0.79375,-0.793708 l -0.79375,-4.2e-5 h -1.322916 z"
       style="fill:#000000;fill-opacity:1;stroke:none;stroke-width:0.176;stroke-miterlimit:4;stroke-dasharray:none" />
    <path
       inkscape:connector-curvature="0"
       id="path1440"
       d="m 90.904591,47.111896 a 0.57003814,0.57003814 0 0 0 -0.284797,-0.492995 0.57003814,0.57003814 0 0 0 -0.28524,0.492995 z"
       style="fill:#000000;fill-opacity:1;stroke:none;stroke-width:0.17600001;stroke-miterlimit:4;stroke-dasharray:none" />
    <path
       inkscape:connector-curvature="0"
       id="path1442"
       d="m 89.958336,46.439582 a 1.3229166,1.3229166 0 0 1 0.661458,0.179319 1.3229166,1.3229166 0 0 1 0.661458,-0.179319 z"
       style="fill:#000000;fill-opacity:1;stroke:none;stroke-width:0.176;stroke-miterlimit:4;stroke-dasharray:none" />
    <path
       style="fill:#000000;fill-opacity:1;stroke:none;stroke-width:0.17600001;stroke-miterlimit:4;stroke-dasharray:none"
       d="m 90.904816,45.645834 a 0.57003814,0.57003814 0 0 0 -0.284797,-0.492995 0.57003814,0.57003814 0 0 0 -0.28524,0.492995 z"
       id="path1444"
       inkscape:connector-curvature="0" />
    <path
       style="fill:#000000;fill-opacity:1;stroke:none;stroke-width:0.176;stroke-miterlimit:4;stroke-dasharray:none"
       d="m 83.34375,45.645833 c 0,0.79375 0,0.793708 0.529167,0.793708 h 1.322916 c 0.529167,0 0.529167,4.2e-5 0.529167,-0.793708 l -0.529167,-4.2e-5 h -1.322916 z"
       id="path1446"
       inkscape:connector-curvature="0"
       sodipodi:nodetypes="csscccc" />
    <path
       style="fill:#000000;fill-opacity:1;stroke:none;stroke-width:0.17600001;stroke-miterlimit:4;stroke-dasharray:none"
       d="m 84.819174,47.111896 a 0.57003814,0.57003814 0 0 0 -0.284797,-0.492995 0.57003814,0.57003814 0 0 0 -0.28524,0.492995 z"
       id="path1448"
       inkscape:connector-curvature="0" />
    <path
       style="fill:#000000;fill-opacity:1;stroke:none;stroke-width:0.176;stroke-miterlimit:4;stroke-dasharray:none"
       d="m 83.872919,46.439582 a 1.3229166,1.3229166 0 0 1 0.661458,0.179319 1.3229166,1.3229166 0 0 1 0.661458,-0.179319 z"
       id="path1450"
       inkscape:connector-curvature="0" />
    <path
       inkscape:connector-curvature="0"
       id="path1452"
       d="m 84.819399,45.645834 a 0.57003814,0.57003814 0 0 0 -0.284797,-0.492995 0.57003814,0.57003814 0 0 0 -0.28524,0.492995 z"
       style="fill:#000000;fill-opacity:1;stroke:none;stroke-width:0.17600001;stroke-miterlimit:4;stroke-dasharray:none" />
    <circle
       style="fill:#000000;fill-opacity:1;stroke:none;stroke-width:0.176;stroke-miterlimit:4;stroke-dasharray:none"
       id="path849"
       cx="120.38541"
       cy="81.364578"
       r="1.3229166" />
    <path
       style="fill:#b3b3b3;fill-opacity:1;stroke:none;stroke-width:0.176;stroke-miterlimit:4;stroke-dasharray:none"
       d="m 121.70834,83.216667 a 1.3229166,1.3229166 0 0 1 1.32291,1.322917 v -1.322917 z"
       id="rect873"
       inkscape:connector-curvature="0" />
    <g
       id="g900"
       transform="translate(1.71978,1.7197903)"
       style="fill:#000000">
      <path
         inkscape:connector-curvature="0"
         id="circle860"
         d="m 126.20625,76.072917 v 1.322916 h 1.32292 a 1.3229166,1.3229166 0 0 0 -1.32292,-1.322916 z"
         style="fill:#000000;fill-opacity:1;stroke:none;stroke-width:0.176;stroke-miterlimit:4;stroke-dasharray:none" />
      <path
         style="fill:#000000;fill-opacity:1;stroke:none;stroke-width:0.176;stroke-miterlimit:4;stroke-dasharray:none"
         d="m 124.88332,77.395838 h 1.32292 v -1.32292 a 1.3229166,1.3229166 0 0 0 -1.32292,1.32292 z"
         id="path878"
         inkscape:connector-curvature="0" />
      <path
         style="fill:#000000;fill-opacity:1;stroke:none;stroke-width:0.176;stroke-miterlimit:4;stroke-dasharray:none"
         d="m 126.20626,78.718751 v -1.322916 h 1.32292 a 1.3229166,1.3229166 0 0 1 -1.32292,1.322916 z"
         id="path892"
         inkscape:connector-curvature="0" />
      <path
         inkscape:connector-curvature="0"
         id="path894"
         d="m 124.88333,77.39583 h 1.32292 v 1.32292 a 1.3229166,1.3229166 0 0 1 -1.32292,-1.32292 z"
         style="fill:#000000;fill-opacity:1;stroke:none;stroke-width:0.176;stroke-miterlimit:4;stroke-dasharray:none" />
    </g>
    <g
       id="g908">
      <rect
         y="81.364586"
         x="125.67707"
         height="1.3229166"
         width="1.3229166"
         id="rect851"
         style="fill:#b3b3b3;fill-opacity:1;stroke:none;stroke-width:0.176;stroke-miterlimit:4;stroke-dasharray:none" />
      <path
         style="fill:#b3b3b3;fill-opacity:1;stroke:none;stroke-width:0.176;stroke-miterlimit:4;stroke-dasharray:none"
         d="M 127,81.364584 V 82.6875 h 1.32292 A 1.3229166,1.3229166 0 0 0 127,81.364584 Z"
         id="path880"
         inkscape:connector-curvature="0" />
      <path
         inkscape:connector-curvature="0"
         id="path882"
         d="m 124.35417,82.6875 h 1.32292 v -1.32292 a 1.3229166,1.3229166 0 0 0 -1.32292,1.32292 z"
         style="fill:#b3b3b3;fill-opacity:1;stroke:none;stroke-width:0.176;stroke-miterlimit:4;stroke-dasharray:none" />
      <rect
         transform="scale(1,-1)"
         style="fill:#b3b3b3;fill-opacity:1;stroke:none;stroke-width:0.176;stroke-miterlimit:4;stroke-dasharray:none"
         id="rect884"
         width="1.3229166"
         height="1.3229166"
         x="125.67709"
         y="-84.010414" />
      <path
         inkscape:connector-curvature="0"
         id="path888"
         d="M 127.00001,84.010416 V 82.6875 h 1.32292 a 1.3229166,1.3229166 0 0 1 -1.32292,1.322916 z"
         style="fill:#b3b3b3;fill-opacity:1;stroke:none;stroke-width:0.176;stroke-miterlimit:4;stroke-dasharray:none" />
      <path
         style="fill:#b3b3b3;fill-opacity:1;stroke:none;stroke-width:0.176;stroke-miterlimit:4;stroke-dasharray:none"
         d="m 124.35418,82.6875 h 1.32292 v 1.32292 a 1.3229166,1.3229166 0 0 1 -1.32292,-1.32292 z"
         id="path890"
         inkscape:connector-curvature="0" />
    </g>
    <path
       style="fill:#000000;fill-opacity:1;stroke:none;stroke-width:0.176;stroke-miterlimit:4;stroke-dasharray:none"
       d="m 136.11872,83.084374 a 1.3229166,1.3229166 0 0 0 0,1.870887 1.3229166,1.3229166 0 0 0 1.87089,0 1.3229166,1.3229166 0 0 0 0,-1.870887 l -0.93545,-0.935443 z"
       id="rect910"
       inkscape:connector-curvature="0" />
    <circle
       r="1.3229166"
       cy="82.95208"
       cx="143.93333"
       id="circle915"
       style="fill:#000000;fill-opacity:1;stroke:none;stroke-width:0.176;stroke-miterlimit:4;stroke-dasharray:none" />
    <circle
       style="fill:#000000;fill-opacity:1;stroke:none;stroke-width:0.176;stroke-miterlimit:4;stroke-dasharray:none"
       id="path917"
       cx="137.58333"
       cy="74.75"
       r="1.3229166" />
    <circle
       r="1.3229166"
       cy="73.427086"
       cx="138.90625"
       id="circle919"
       style="fill:#000000;fill-opacity:1;stroke:none;stroke-width:0.176;stroke-miterlimit:4;stroke-dasharray:none" />
    <circle
       style="fill:#000000;fill-opacity:1;stroke:none;stroke-width:0.176;stroke-miterlimit:4;stroke-dasharray:none"
       id="circle923"
       cx="140.22917"
       cy="73.956253"
       r="1.3229166" />
    <circle
       r="1.3229166"
       cy="74.75"
       cx="141.55208"
       id="circle925"
       style="fill:#000000;fill-opacity:1;stroke:none;stroke-width:0.176;stroke-miterlimit:4;stroke-dasharray:none" />
    <rect
       style="fill:#000000;fill-opacity:1;stroke:none;stroke-width:0.176;stroke-miterlimit:4;stroke-dasharray:none"
       id="rect927"
       width="3.96875"
       height="1.8520833"
       x="137.58333"
       y="74.220833" />
    <path
       style="fill:#000000;fill-opacity:1;stroke:none;stroke-width:0.66519684;stroke-miterlimit:4;stroke-dasharray:none"
       d="M 521 290.51953 A 4.9999998 4.9999998 0 0 0 516 295.51953 A 4.9999998 4.9999998 0 0 0 511 300.51953 A 4.9999998 4.9999998 0 0 0 516 305.51953 L 531 305.51953 A 4.9999998 4.9999998 0 0 0 536 300.51953 A 4.9999998 4.9999998 0 0 0 531 295.51953 A 4.9999998 4.9999998 0 0 0 530.58398 295.53906 A 4.9999998 4.9999998 0 0 0 526 292.51953 A 4.9999998 4.9999998 0 0 0 525.05859 292.61133 A 4.9999998 4.9999998 0 0 0 521 290.51953 z "
       transform="scale(0.26458333)"
       id="circle929" />
    <circle
       style="fill:#ffcc00;fill-opacity:1;stroke:none;stroke-width:0.176;stroke-miterlimit:4;stroke-dasharray:none"
       id="circle940"
       cx="132.55624"
       cy="74.220833"
       r="1.3229166" />
    <path
       id="path942"
       d="m 130.83646,73.294792 a 1.3229166,1.3229166 0 0 0 -1.32292,1.322916 1.3229166,1.3229166 0 0 0 -1.32291,1.322917 1.3229166,1.3229166 0 0 0 1.32291,1.322917 h 3.96875 a 1.3229166,1.3229166 0 0 0 1.32292,-1.322917 1.3229166,1.3229166 0 0 0 -1.32292,-1.322917 1.3229166,1.3229166 0 0 0 -0.11007,0.0052 1.3229166,1.3229166 0 0 0 -1.21285,-0.798918 1.3229166,1.3229166 0 0 0 -0.24908,0.02429 1.3229166,1.3229166 0 0 0 -1.07383,-0.553455 z"
       style="fill:#666666;fill-opacity:1;stroke:none;stroke-width:0.176;stroke-miterlimit:4;stroke-dasharray:none"
       inkscape:connector-curvature="0" />
    <path
       style="fill:#000000;stroke:none;stroke-width:0.26458332px;stroke-linecap:butt;stroke-linejoin:miter;stroke-opacity:1"
       d="m 129.64583,81.364584 1.32292,-1.322917 v 1.322917 z"
       id="path944"
       inkscape:connector-curvature="0" />
    <path
       inkscape:connector-curvature="0"
       id="path946"
       d="m 130.96875,81.364583 -1.32292,1.32292 v -1.32292 z"
       style="fill:#000000;stroke:none;stroke-width:0.26458332px;stroke-linecap:butt;stroke-linejoin:miter;stroke-opacity:1" />
    <path
       inkscape:connector-curvature="0"
       id="path948"
       d="M 134.14375,86.12708 132.82083,87.45 v -1.32292 z"
       style="fill:#000000;stroke:none;stroke-width:0.26458332px;stroke-linecap:butt;stroke-linejoin:miter;stroke-opacity:1" />
    <path
       style="fill:#000000;stroke:none;stroke-width:0.26458332px;stroke-linecap:butt;stroke-linejoin:miter;stroke-opacity:1"
       d="M 132.82083,86.12708 131.49791,87.45 h 1.32292 z"
       id="path950"
       inkscape:connector-curvature="0" />
    <rect
       style="fill:#000000;fill-opacity:1;stroke:none;stroke-width:0.176;stroke-miterlimit:4;stroke-dasharray:none"
       id="rect952"
       width="1.3229166"
       height="1.3229166"
       x="130.04271"
       y="84.142708" />
    <rect
       y="84.671875"
       x="128.4552"
       height="1.3229166"
       width="1.3229166"
       id="rect954"
       style="fill:#000000;fill-opacity:1;stroke:none;stroke-width:0.176;stroke-miterlimit:4;stroke-dasharray:none" />
    <path
       style="fill:#000000;stroke:none;stroke-width:0.26458332px;stroke-linecap:butt;stroke-linejoin:miter;stroke-opacity:1"
       d="m 133.61458,87.979167 -1.32292,1.32292 v -1.32292 z"
       id="path960"
       inkscape:connector-curvature="0" />
    <path
       inkscape:connector-curvature="0"
       id="path962"
       d="m 132.29167,87.979163 -1.32292,1.32292 h 1.32292 z"
       style="fill:#000000;stroke:none;stroke-width:0.26458332px;stroke-linecap:butt;stroke-linejoin:miter;stroke-opacity:1" />
    <path
       style="fill:#000000;stroke:none;stroke-width:0.26458332px;stroke-linecap:butt;stroke-linejoin:miter;stroke-opacity:1"
       d="m 131.49792,87.45 h 1.32291 l 0.79375,0.529167 h -1.32292 z"
       id="path964"
       inkscape:connector-curvature="0" />
    <path
       id="path2120"
       d="m 118.13646,70.648958 a 1.3229166,1.3229166 0 0 0 -1.32291,1.322917 1.3229166,1.3229166 0 0 0 -1.32292,1.322917 1.3229166,1.3229166 0 0 0 1.32292,1.322916 h 3.96875 a 1.3229166,1.3229166 0 0 0 1.32291,-1.322916 1.3229166,1.3229166 0 0 0 -1.32291,-1.322917 1.3229166,1.3229166 0 0 0 -0.11008,0.0052 1.3229166,1.3229166 0 0 0 -1.21284,-0.798917 1.3229166,1.3229166 0 0 0 -0.24908,0.02429 1.3229166,1.3229166 0 0 0 -1.07384,-0.553456 z"
       style="fill:#000000;fill-opacity:1;stroke:none;stroke-width:0.176;stroke-miterlimit:4;stroke-dasharray:none"
       inkscape:connector-curvature="0" />
  </g>
</svg>
