<?xml version="1.0" encoding="UTF-8" standalone="no"?>
<!-- Created with Inkscape (http://www.inkscape.org/) -->

<svg
   xmlns:dc="http://purl.org/dc/elements/1.1/"
   xmlns:cc="http://creativecommons.org/ns#"
   xmlns:rdf="http://www.w3.org/1999/02/22-rdf-syntax-ns#"
   xmlns:svg="http://www.w3.org/2000/svg"
   xmlns="http://www.w3.org/2000/svg"
   xmlns:sodipodi="http://sodipodi.sourceforge.net/DTD/sodipodi-0.dtd"
   xmlns:inkscape="http://www.inkscape.org/namespaces/inkscape"
   width="4.2365346mm"
   height="4.2364702mm"
   viewBox="0 0 4.2365346 4.2364702"
   version="1.1"
   id="svg5070"
   inkscape:version="0.92.4 (5da689c313, 2019-01-14)"
   sodipodi:docname="snowflake.svg">
  <defs
     id="defs5064" />
  <sodipodi:namedview
     id="base"
     pagecolor="#ffffff"
     bordercolor="#666666"
     borderopacity="1.0"
     inkscape:pageopacity="0.0"
     inkscape:pageshadow="2"
     inkscape:zoom="22.4"
     inkscape:cx="23.883332"
     inkscape:cy="7.1620019"
     inkscape:document-units="mm"
     inkscape:current-layer="layer1"
     showgrid="true"
     fit-margin-top="0"
     fit-margin-left="0"
     fit-margin-right="0"
     fit-margin-bottom="0"
     inkscape:window-width="1822"
     inkscape:window-height="1051"
     inkscape:window-x="2489"
     inkscape:window-y="-9"
     inkscape:window-maximized="1">
    <inkscape:grid
       type="xygrid"
       id="grid5759"
       originx="488.29017"
       originy="-220.13284" />
  </sodipodi:namedview>
  <metadata
     id="metadata5067">
    <rdf:RDF>
      <cc:Work
         rdf:about="">
        <dc:format>image/svg+xml</dc:format>
        <dc:type
           rdf:resource="http://purl.org/dc/dcmitype/StillImage" />
        <dc:title></dc:title>
      </cc:Work>
    </rdf:RDF>
  </metadata>
  <g
     inkscape:label="Layer 1"
     inkscape:groupmode="layer"
     id="layer1"
     transform="translate(488.29014,-72.630683)">
    <path
       style="color:#000000;font-style:normal;font-variant:normal;font-weight:normal;font-stretch:normal;font-size:medium;line-height:normal;font-family:sans-serif;font-variant-ligatures:normal;font-variant-position:normal;font-variant-caps:normal;font-variant-numeric:normal;font-variant-alternates:normal;font-feature-settings:normal;text-indent:0;text-align:start;text-decoration:none;text-decoration-line:none;text-decoration-style:solid;text-decoration-color:#000000;letter-spacing:normal;word-spacing:normal;text-transform:none;writing-mode:lr-tb;direction:ltr;text-orientation:mixed;dominant-baseline:auto;baseline-shift:baseline;text-anchor:start;white-space:normal;shape-padding:0;clip-rule:nonzero;display:inline;overflow:visible;visibility:visible;opacity:1;isolation:auto;mix-blend-mode:normal;color-interpolation:sRGB;color-interpolation-filters:linearRGB;solid-color:#000000;solid-opacity:1;vector-effect:none;fill:#000000;fill-opacity:1;fill-rule:nonzero;stroke:none;stroke-width:0.99999994;stroke-linecap:round;stroke-linejoin:miter;stroke-miterlimit:4;stroke-dasharray:none;stroke-dashoffset:0;stroke-opacity:1;color-rendering:auto;image-rendering:auto;shape-rendering:auto;text-rendering:auto;enable-background:accumulate"
       d="m -1837.5078,274.50977 a 0.50004998,0.50004998 0 0 0 -0.4942,0.50976 v 1.49805 l -1.1953,-0.90039 a 0.50004998,0.50004998 0 0 0 -0.332,-0.10352 0.50004998,0.50004998 0 0 0 -0.4531,0.67774 0.50004998,0.50004998 0 0 0 0.02,0.0449 0.50004998,0.50004998 0 0 0 0.1602,0.18555 l 1.8007,1.3457 v 0.75 l -1.1953,-0.90039 a 0.50004998,0.50004998 0 0 0 -0.332,-0.10157 0.50004998,0.50004998 0 0 0 -0.2734,0.90626 l 1.8007,1.3457 v 1.54101 l -2.4668,-2.46679 0.3184,-2.22852 a 0.50004998,0.50004998 0 0 0 -0.5312,-0.57422 0.50004998,0.50004998 0 0 0 -0.4571,0.43555 l -0.2129,1.48437 -0.791,-0.79101 a 0.50004998,0.50004998 0 0 0 -0.3633,-0.1543 0.50004998,0.50004998 0 0 0 -0.3457,0.86328 l 0.7911,0.79102 -1.4844,0.21289 a 0.50004998,0.50004998 0 1 0 0.1387,0.98828 l 2.2285,-0.31836 2.4668,2.4668 h -1.5411 l -1.3457,-1.80078 a 0.50004998,0.50004998 0 0 0 -0.4863,-0.19922 0.50004998,0.50004998 0 0 0 -0.3183,0.80469 l 0.9003,1.19531 h -0.75 l -1.3457,-1.80078 a 0.50004998,0.50004998 0 0 0 -0.4863,-0.19922 0.50004998,0.50004998 0 0 0 -0.3183,0.80469 l 0.9003,1.19531 H -1845 a 0.50196661,0.50196661 0 1 0 0,1.0039 h 1.498 l -0.9003,1.19532 a 0.50348165,0.50348165 0 1 0 0.8046,0.60547 l 1.3457,-1.80079 h 0.75 l -0.9003,1.19532 a 0.50348165,0.50348165 0 1 0 0.8046,0.60547 l 1.3457,-1.80079 h 1.5411 l -2.4668,2.4668 -2.2285,-0.31836 a 0.50004998,0.50004998 0 0 0 -0.096,-0.008 0.50004998,0.50004998 0 0 0 -0.043,0.99609 l 1.4844,0.21289 -0.7911,0.79102 a 0.50133164,0.50133164 0 0 0 0.709,0.70898 l 0.791,-0.79101 0.2129,1.48633 a 0.50004998,0.50004998 0 1 0 0.9883,-0.14063 l -0.3184,-2.22851 2.4668,-2.4668 v 1.54101 l -1.8007,1.34571 a 0.50349656,0.50349656 0 1 0 0.6054,0.80469 l 1.1953,-0.9004 v 0.75 l -1.8007,1.34571 a 0.50349656,0.50349656 0 1 0 0.6054,0.80469 l 1.1953,-0.9004 v 1.49805 a 0.502,0.502 0 1 0 1.004,0 v -1.49805 l 1.1953,0.9004 a 0.50349656,0.50349656 0 1 0 0.6054,-0.80469 l -1.8007,-1.34571 v -0.75 l 1.1953,0.9004 a 0.50349656,0.50349656 0 1 0 0.6054,-0.80469 l -1.8007,-1.34571 v -1.54101 l 2.4668,2.4668 -0.3184,2.22851 a 0.50004998,0.50004998 0 1 0 0.9883,0.14063 l 0.2129,-1.48633 0.791,0.79101 a 0.50133164,0.50133164 0 1 0 0.709,-0.70898 l -0.7911,-0.79102 1.4844,-0.21289 a 0.50004998,0.50004998 0 0 0 -0.059,-0.99609 0.50004998,0.50004998 0 0 0 -0.08,0.008 l -2.2285,0.31836 -2.4668,-2.4668 h 1.5411 l 1.3457,1.80079 a 0.50348165,0.50348165 0 1 0 0.8046,-0.60547 l -0.9003,-1.19532 h 0.75 l 1.3457,1.80079 a 0.50348165,0.50348165 0 1 0 0.8046,-0.60547 l -0.9003,-1.19532 h 1.498 a 0.50196661,0.50196661 0 1 0 0,-1.0039 h -1.498 l 0.9003,-1.19531 a 0.50004998,0.50004998 0 0 0 -0.4355,-0.80469 0.50004998,0.50004998 0 0 0 -0.3691,0.19922 l -1.3457,1.80078 h -0.75 l 0.9003,-1.19531 a 0.50004998,0.50004998 0 0 0 -0.4355,-0.80469 0.50004998,0.50004998 0 0 0 -0.3691,0.19922 l -1.3457,1.80078 h -1.5411 l 2.4668,-2.4668 2.2285,0.31836 a 0.50004998,0.50004998 0 1 0 0.1387,-0.98828 l -1.4844,-0.21289 0.7911,-0.79102 a 0.50004998,0.50004998 0 0 0 -0.3614,-0.86328 0.50004998,0.50004998 0 0 0 -0.3476,0.1543 l -0.791,0.79101 -0.2129,-1.48437 a 0.50004998,0.50004998 0 0 0 -0.5235,-0.43555 0.50004998,0.50004998 0 0 0 -0.4648,0.57422 l 0.3184,2.22852 -2.4668,2.46679 v -1.54101 l 1.8007,-1.3457 a 0.50349656,0.50349656 0 1 0 -0.6054,-0.80469 l -1.1953,0.90039 v -0.75 l 1.8007,-1.3457 a 0.50345027,0.50345027 0 0 0 -0.5879,-0.81641 0.50345027,0.50345027 0 0 0 -0.017,0.0117 l -1.1953,0.90039 v -1.49805 a 0.50004998,0.50004998 0 0 0 -0.5098,-0.50976 z"
       transform="scale(0.26458333)"
       id="path4990"
       inkscape:connector-curvature="0" />
  </g>
</svg>
